<?xml version="1.0" encoding="UTF-8" standalone="no"?>
<!-- Generator: Adobe Illustrator 16.0.0, SVG Export Plug-In . SVG Version: 6.00 Build 0)  -->

<svg
   xmlns:dc="http://purl.org/dc/elements/1.1/"
   xmlns:cc="http://creativecommons.org/ns#"
   xmlns:rdf="http://www.w3.org/1999/02/22-rdf-syntax-ns#"
   xmlns:svg="http://www.w3.org/2000/svg"
   xmlns="http://www.w3.org/2000/svg"
   xmlns:sodipodi="http://sodipodi.sourceforge.net/DTD/sodipodi-0.dtd"
   xmlns:inkscape="http://www.inkscape.org/namespaces/inkscape"
   version="1.1"
   id="Layer_1"
   x="0px"
   y="0px"
   width="105"
   height="50"
   viewBox="0 0 104.99999 49.999996"
   enable-background="new 0 0 841.89 595.28"
   xml:space="preserve"
   sodipodi:docname="logo_left.svg"
   inkscape:version="0.91 r13725"
   inkscape:export-filename="./ideal_left.png"
   inkscape:export-xdpi="900"
   inkscape:export-ydpi="900"><metadata
     id="metadata145"><rdf:RDF><cc:Work
         rdf:about=""><dc:format>image/svg+xml</dc:format><dc:type
           rdf:resource="http://purl.org/dc/dcmitype/StillImage" /><dc:title></dc:title></cc:Work></rdf:RDF></metadata><defs
     id="defs143" /><sodipodi:namedview
     pagecolor="#ffffff"
     bordercolor="#666666"
     borderopacity="1"
     objecttolerance="10"
     gridtolerance="10"
     guidetolerance="10"
     inkscape:pageopacity="0"
     inkscape:pageshadow="2"
     inkscape:window-width="1680"
     inkscape:window-height="987"
     id="namedview141"
     showgrid="false"
     inkscape:zoom="3.1716166"
     inkscape:cx="64.099104"
     inkscape:cy="5.3911741"
     inkscape:window-x="-8"
     inkscape:window-y="-8"
     inkscape:window-maximized="1"
     inkscape:current-layer="Layer_1" /><g
     id="g12"
     transform="matrix(0.39836818,0,0,0.39836818,-10.960468,-88.555075)"><path
       inkscape:connector-curvature="0"
       id="path10"
       d="m 46.799,256.182 c 8.041,0 14.474,-6.433 14.474,-14.62 0,-8.041 -6.433,-14.474 -14.474,-14.474 -8.187,0 -14.619,6.433 -14.619,14.474 0,8.187 6.432,14.62 14.619,14.62 z" /></g><g
     id="g20"
     transform="matrix(0.39836818,0,0,0.39836818,-10.960468,-88.555075)"><path
       inkscape:connector-curvature="0"
       id="path18"
       d="m 59.957,261.078 v 81.579 h -26.46 v -81.579 z" /></g><g
     id="g24"
     transform="matrix(0.39836818,0,0,0.39836818,-10.960468,-88.555075)"><path
       inkscape:connector-curvature="0"
       id="path22"
       d="M 98.333,323.284 V 280.45 c 0,-3.801 -1.169,-5.995 -3.947,-5.995 -2.778,0 -3.947,2.194 -3.947,5.995 v 42.834 c 0,3.801 1.169,5.994 3.947,5.994 2.778,0 3.947,-2.193 3.947,-5.994 z m -33.479,-0.586 v -41.663 c 0,-16.375 9.941,-21.492 18.274,-21.492 6.725,0 11.988,3.216 15.204,7.603 v -27.63 h 25.73 v 103.066 h -25.73 v -7.018 c -3.216,5.263 -8.333,8.625 -15.204,8.625 -8.332,0 -18.274,-5.116 -18.274,-21.491 z" /></g><g
     id="g28"
     transform="matrix(0.39836818,0,0,0.39836818,-10.960468,-88.555075)"><path
       inkscape:connector-curvature="0"
       id="path26"
       d="m 154.692,280.304 v 13.888 h 7.456 v -13.888 c 0,-3.655 -1.17,-5.701 -3.655,-5.701 -2.632,0 -3.801,2.046 -3.801,5.701 z m -25.731,33.185 v -23.245 c 0,-20.613 10.965,-30.701 29.823,-30.701 18.274,0 29.239,10.087 29.239,30.701 v 15.058 h -33.332 v 17.105 c 0,4.387 1.461,6.871 4.532,6.871 2.924,0 4.386,-2.484 4.386,-6.871 v -13.45 h 24.415 v 4.532 c 0,20.613 -10.965,30.7 -29.239,30.7 -18.859,0 -29.824,-10.086 -29.824,-30.7 z" /></g><g
     id="g32"
     transform="matrix(0.39836818,0,0,0.39836818,-10.960468,-88.555075)"><path
       inkscape:connector-curvature="0"
       id="path30"
       d="m 249.353,288.491 v 54.091 h -24.707 v -7.31 c -3.217,5.408 -8.187,8.917 -16.082,8.917 -8.625,0 -16.958,-5.409 -16.958,-17.981 v -6.286 c 0,-24.415 32.309,-17.982 32.309,-35.817 v -3.217 c 0,-4.531 -1.461,-6.285 -4.093,-6.285 -2.778,0 -4.094,2.192 -4.094,5.993 v 12.866 h -24.123 v -5.848 c 0,-19.005 11.55,-28.07 29.531,-28.07 18.129,-10e-4 28.217,9.064 28.217,28.947 z m -25.438,34.5 v -21.344 c -4.824,4.824 -8.187,4.385 -8.187,15.496 v 6.141 c 0,3.801 1.316,5.994 4.094,5.994 2.631,0 4.093,-1.755 4.093,-6.287 z" /></g><g
     id="g44"
     transform="matrix(0.39836818,0,0,0.39836818,-10.960468,-88.555075)"><rect
       id="rect42"
       height="103.066"
       width="26.461"
       y="239.51601"
       x="254.25" /></g><g
     id="g56"
     transform="matrix(0.39836818,0,0,0.39836818,-10.960468,-88.555075)"><path
       inkscape:connector-curvature="0"
       id="path54"
       d="m 248.956,239.516 -17.639,17.247 h -19.932 l 11.201,-17.247 z" /></g></svg>