<?xml version="1.0" encoding="UTF-8" standalone="no"?>
<!-- Generator: Adobe Illustrator 16.0.0, SVG Export Plug-In . SVG Version: 6.00 Build 0)  -->

<svg
   xmlns:dc="http://purl.org/dc/elements/1.1/"
   xmlns:cc="http://creativecommons.org/ns#"
   xmlns:rdf="http://www.w3.org/1999/02/22-rdf-syntax-ns#"
   xmlns:svg="http://www.w3.org/2000/svg"
   xmlns="http://www.w3.org/2000/svg"
   xmlns:sodipodi="http://sodipodi.sourceforge.net/DTD/sodipodi-0.dtd"
   xmlns:inkscape="http://www.inkscape.org/namespaces/inkscape"
   version="1.1"
   id="Layer_1"
   x="0px"
   y="0px"
   width="105"
   height="50"
   viewBox="0 0 104.99999 49.999996"
   enable-background="new 0 0 841.89 595.28"
   xml:space="preserve"
   sodipodi:docname="logo_right.svg"
   inkscape:version="0.91 r13725"
   inkscape:export-filename="C:\xampp\htdocs\wp-content\themes\zl-web\img\logo_right.png"
   inkscape:export-xdpi="900"
   inkscape:export-ydpi="900"><metadata
     id="metadata145"><rdf:RDF><cc:Work
         rdf:about=""><dc:format>image/svg+xml</dc:format><dc:type
           rdf:resource="http://purl.org/dc/dcmitype/StillImage" /><dc:title></dc:title></cc:Work></rdf:RDF></metadata><defs
     id="defs143" /><sodipodi:namedview
     pagecolor="#ffffff"
     bordercolor="#666666"
     borderopacity="1"
     objecttolerance="10"
     gridtolerance="10"
     guidetolerance="10"
     inkscape:pageopacity="0"
     inkscape:pageshadow="2"
     inkscape:window-width="1680"
     inkscape:window-height="987"
     id="namedview141"
     showgrid="false"
     inkscape:zoom="3.1716166"
     inkscape:cx="11.917513"
     inkscape:cy="5.3911741"
     inkscape:window-x="-8"
     inkscape:window-y="-8"
     inkscape:window-maximized="1"
     inkscape:current-layer="Layer_1" /><g
     id="g4"
     transform="matrix(0.39836818,0,0,0.39836818,-112.96047,-88.555075)"><path
       inkscape:connector-curvature="0"
       id="path2"
       d="m 301.462,292.876 c 8.625,0 15.497,-6.871 15.497,-15.643 0,-8.625 -6.872,-15.496 -15.497,-15.496 -8.772,0 -15.643,6.871 -15.643,15.496 0,8.772 6.871,15.643 15.643,15.643 z" /></g><g
     id="g8"
     transform="matrix(0.39836818,0,0,0.39836818,-112.96047,-88.555075)"><path
       inkscape:connector-curvature="0"
       id="path6"
       d="m 301.462,343.751 c 8.625,0 15.497,-6.872 15.497,-15.642 0,-8.626 -6.872,-15.497 -15.497,-15.497 -8.772,0 -15.643,6.871 -15.643,15.497 0,8.77 6.871,15.642 15.643,15.642 z" /></g><g
     id="g16"
     transform="matrix(0.39836818,0,0,0.39836818,-112.96047,-88.555075)"><path
       inkscape:connector-curvature="0"
       id="path14"
       d="m 469.546,261.004 0,81.578 -26.461,0 0,-81.578 z" /></g><g
     id="g36"
     transform="matrix(0.39836818,0,0,0.39836818,-112.96047,-88.555075)"><polygon
       id="polygon34"
       points="383.146,321.968 406.827,321.968 406.827,342.582 353.762,342.582 353.762,323.723 378.028,260.129 356.247,260.129 356.247,239.516 406.827,239.516 406.827,260.129 " /></g><g
     id="g40"
     transform="matrix(0.39836818,0,0,0.39836818,-112.96047,-88.555075)"><rect
       id="rect38"
       height="103.066"
       width="26.461"
       y="239.51601"
       x="411.72501" /></g><g
     id="g48"
     transform="matrix(0.39836818,0,0,0.39836818,-112.96047,-88.555075)"><path
       inkscape:connector-curvature="0"
       id="path46"
       d="m 500.174,280.45 0,62.132 -25.729,0 0,-81.576 25.875,0 0,6.725 c 3.071,-4.24 9.21,-8.188 16.667,-8.188 9.063,0 16.812,4.971 16.812,20.029 l -0.146,63.009 -25.584,0 0,-62.131 c 0,-3.801 -1.17,-5.995 -3.947,-5.995 -2.779,0 -3.948,2.194 -3.948,5.995 z" /></g><g
     id="g52"
     transform="matrix(0.39836818,0,0,0.39836818,-112.96047,-88.555075)"><path
       inkscape:connector-curvature="0"
       id="path50"
       d="m 483.077,239.516 -17.639,17.247 -19.932,0 11.202,-17.247 z" /></g></svg>