<?xml version="1.0" encoding="UTF-8" standalone="no"?>
<!-- Generator: Adobe Illustrator 16.0.0, SVG Export Plug-In . SVG Version: 6.00 Build 0)  -->

<svg
   xmlns:dc="http://purl.org/dc/elements/1.1/"
   xmlns:cc="http://creativecommons.org/ns#"
   xmlns:rdf="http://www.w3.org/1999/02/22-rdf-syntax-ns#"
   xmlns:svg="http://www.w3.org/2000/svg"
   xmlns="http://www.w3.org/2000/svg"
   xmlns:sodipodi="http://sodipodi.sourceforge.net/DTD/sodipodi-0.dtd"
   xmlns:inkscape="http://www.inkscape.org/namespaces/inkscape"
   version="1.1"
   id="Layer_1"
   x="0px"
   y="0px"
   width="40"
   height="40"
   viewBox="0 0 39.999998 39.999997"
   enable-background="new 0 0 841.89 595.28"
   xml:space="preserve"
   sodipodi:docname="logolite.svg"
   inkscape:version="0.91 r13725"
   inkscape:export-filename="C:\xampp\htdocs\wp-content\themes\zl-web\img\logolite.png"
   inkscape:export-xdpi="1801"
   inkscape:export-ydpi="1801"><metadata
     id="metadata145"><rdf:RDF><cc:Work
         rdf:about=""><dc:format>image/svg+xml</dc:format><dc:type
           rdf:resource="http://purl.org/dc/dcmitype/StillImage" /><dc:title></dc:title></cc:Work></rdf:RDF></metadata><defs
     id="defs143" /><sodipodi:namedview
     pagecolor="#ffffff"
     bordercolor="#666666"
     borderopacity="1"
     objecttolerance="10"
     gridtolerance="10"
     guidetolerance="10"
     inkscape:pageopacity="0"
     inkscape:pageshadow="2"
     inkscape:window-width="1680"
     inkscape:window-height="987"
     id="namedview141"
     showgrid="false"
     inkscape:zoom="3.1716166"
     inkscape:cx="77.656859"
     inkscape:cy="5.0758775"
     inkscape:window-x="-8"
     inkscape:window-y="-8"
     inkscape:window-maximized="1"
     inkscape:current-layer="Layer_1" /><g
     id="g4"
     transform="matrix(0.39836818,0,0,0.39836818,-100.06379,-100.60358)"><path
       inkscape:connector-curvature="0"
       id="path2"
       d="m 301.462,292.876 c 8.625,0 15.497,-6.871 15.497,-15.643 0,-8.625 -6.872,-15.496 -15.497,-15.496 -8.772,0 -15.643,6.871 -15.643,15.496 0,8.772 6.871,15.643 15.643,15.643 z" /></g><g
     id="g8"
     transform="matrix(0.39836818,0,0,0.39836818,-100.06379,-100.60358)"><path
       inkscape:connector-curvature="0"
       id="path6"
       d="m 301.462,343.751 c 8.625,0 15.497,-6.872 15.497,-15.642 0,-8.626 -6.872,-15.497 -15.497,-15.497 -8.772,0 -15.643,6.871 -15.643,15.497 0,8.77 6.871,15.642 15.643,15.642 z" /></g></svg>